#!OML:ASF F:\VICON\USERDATA\INSTALL\rory3\rory3.ASF
:FULLY-SPECIFIED
:DEGREES
43
root 0.45115314414352214 14.678697212751798 -16.820043838803553 27.057766155679268 -0.35709901864852245 -2.4109575814211137
lfemur -63.481253355049546 7.848001165585597 -21.312928248065262
ltibia 74.34017896365052
lfoot -26.15725833056609 19.97478463838973
ltoes -20.833709306482376
rfemur -63.243557108342344 -1.089830100166596 23.821731917397866
rtibia 78.93227787666729
rfoot -31.70211134163611 -16.62009302377994
rtoes -3.9726415976441327
lowerback 20.26840910800081 1.1402532766074303 -0.5918190079932815
upperback 4.604429819682046 1.5977280671142957 2.6774054283392257
thorax -10.042613585750388 0.8981146608842949 2.829329309863812
lowerneck -21.241971684897532 0.035461036918882555 -1.9973328247889908
upperneck 2.873229370010641 0.5178386610836293 -0.3188446877087192
head 3.897871328922137 0.16777032773021178 0.43887494806054395
lclavicle 1.405573018269095e-15 -1.0079482916273128e-15
lhumerus -39.64634419832492 13.110412852328661 78.42025561850178
lradius 12.61079851663404
lwrist -5.8857852373970845
lhand -22.50211616779133 -3.551612376503874
lfingers 7.125019999999998
lthumb 3.923891553635185 26.39112004829886
rclavicle 1.405573018269095e-15 -1.0079482916273128e-15
rhumerus -35.017307017160704 -18.369830005512924 -71.871695873925
rradius 21.65415672825285
rwrist 36.92708270466217
rhand -15.58457807621214 -25.16464149386101
rfingers 7.125019999999998
rthumb 10.600344657863495 -54.84425645987488
44
root 0.41124600674983824 14.648958336441408 -16.221529303555418 28.257092753156677 -0.17330297350429424 -2.403926221634366
lfemur -63.44700044808526 7.634042924221526 -20.95728069264011
ltibia 75.1842387801076
lfoot -26.58269858391241 21.085297297616506
ltoes -22.76055396383586
rfemur -63.16102185215688 -0.5974806461858209 23.91508331518094
rtibia 79.71430980162728
rfoot -32.32691164672995 -18.446418428602094
rtoes -5.628345565550793
lowerback 20.846777407476687 1.3046495981070347 -0.9474760644986209
upperback 2.914882922991551 1.7677368618101459 2.8202072629323034
thorax -11.842042936431348 1.0428997847689332 3.102511898098937
lowerneck -22.356094043466776 -0.07687452993243882 -2.104357245779064
upperneck 2.9739933602524786 0.4024413575935574 -0.15180461506546172
head 4.15897636535198 0.12390732481055353 0.4841498823080793
lclavicle 1.4362746376917351e-15 -9.74240770757726e-16
lhumerus -34.14126465652674 16.175660598301263 77.88968944747445
lradius 11.905842562274755
lwrist -8.7419997307301
lhand -22.725357808398275 -4.0528928310283625
lfingers 7.125019999999998
lthumb 3.7082824544181103 25.89148622013653
rclavicle 1.4362746376917351e-15 -9.74240770757726e-16
rhumerus -32.00035168803021 -17.813648752928838 -72.72964175083033
rradius 22.550797797895488
rwrist 36.88048810978176
rhand -16.112538256979885 -25.316718661697077
rfingers 7.125019999999998
rthumb 10.091060602339171 -55.01966334367212
45
root 0.3759606246803261 14.826382215940674 -15.142700554306629 28.641101954847002 -0.007504984498701517 -2.308402443256174
lfemur -60.59651419961234 7.893825080009796 -20.501609714042047
ltibia 73.93378467985718
lfoot -26.051088337544 21.126861041324815
ltoes -25.673405199465236
rfemur -60.06254267415386 -0.6690496998565232 23.89352636927312
rtibia 78.00518313263198
rfoot -31.88236480947829 -19.47096688573319
rtoes -8.186283017247744
lowerback 20.47096738612556 1.4066070426576829 -1.3611724482366496
upperback 1.262140298242404 1.8228332990519112 2.924399979924522
thorax -12.934463548150841 1.1270970495461683 3.3942078345322333
lowerneck -22.933860689937568 -0.19461285412335888 -2.2525478455206818
upperneck 3.8409968401612 0.2787064048771076 0.10167939573460982
head 4.564228459727125 0.07514974922496907 0.5546947720869935
lclavicle 1.544165502139903e-15 -8.557280483670493e-16
lhumerus -26.824048790354617 16.537719123848603 78.25036225546931
lradius 13.064015842573745
lwrist -7.979783219395094
lhand -23.354684450837638 -4.9017828724307915
lfingers 7.125019999999998
lthumb 3.1005037428262106 25.04595873447942
rclavicle 1.544165502139903e-15 -8.557280483670493e-16
rhumerus -27.735261299314512 -15.602545784679128 -74.093584108701
rradius 25.329306518236255
rwrist 36.18274788903148
rhand -16.78995690026412 -25.49773323428085
rfingers 7.125019999999998
rthumb 9.4375842573599 -55.229432563516625
46
root 0.34445798121851423 15.225518203875833 -13.924728345115659 27.59087591901823 0.13884015806234584 -2.040595466057214
lfemur -54.68620115468441 8.491082585255914 -19.922171247429123
ltibia 70.04600232665027
lfoot -23.83016483355506 19.373803233989
ltoes -29.356156756834615
rfemur -53.682895620770765 -1.6899877481161854 23.57301388326678
rtibia 73.26484474924104
rfoot -29.77306977158441 -19.220626824074536
rtoes -11.4212567728222
lowerback 18.676192580392172 1.3375420374170957 -1.82283673537774
upperback -0.04528587429867681 1.64161679001388 2.890807327897568
thorax -12.90075350050008 1.0704774153739443 3.604421821010651
lowerneck -22.508386188658914 -0.2828039233047547 -2.4486721996707614
upperneck 5.362227774809348 0.18005490363732432 0.38958278962979764
head 4.972368309316994 0.03254209564094633 0.6412123902530569
lclavicle 1.5780665681115643e-15 -8.185028039682176e-16
lhumerus -19.170645271934653 12.904925065448602 79.3631429936263
lradius 16.282610803470146
lwrist -2.769262815942919
lhand -24.249601926448708 -6.023643164749518
lfingers 7.125019999999998
lthumb 2.236260357649432 23.9299952970905
rclavicle 1.5780665681115643e-15 -8.185028039682176e-16
rhumerus -23.078979852257724 -11.189647500854367 -75.86128304277852
rradius 30.04487547355689
rwrist 34.609651420296295
rhand -17.443585500718026 -25.63900389051055
rfingers 7.125019999999998
rthumb 8.807021594161952 -55.39611668257915
47
root 0.3275934064736168 16.02064543350289 -12.151438281226929 25.100773193087235 0.30045875092026686 -1.5680550544898268
lfemur -45.83533572756612 9.07319557679207 -19.108616180973694
ltibia 63.15509587606979
lfoot -17.785559777451287 15.236519236935003
ltoes -31.94572115579298
rfemur -44.09751715771064 -3.5857235306190023 22.68521406846383
rtibia 65.2085742052678
rfoot -23.847272568574702 -17.393345092154288
rtoes -12.891472045865484
lowerback 15.233205179142601 1.0369351071973947 -2.269484661737644
upperback -0.7355550006749847 1.1811826924300166 2.663899063916748
thorax -11.239527387484983 0.8333608512384277 3.6438568532162368
lowerneck -20.41829264677772 -0.3336918085681083 -2.6663622925491954
upperneck 7.573317598269735 0.08032970714326451 0.7324346265630242
head 5.294487812430452 -0.012536096598471803 0.7439855662064643
lclavicle 1.5653053459096811e-15 -8.325386209359046e-16
lhumerus -13.015097851273165 5.562075898112142 80.63762886511692
lradius 21.274221671812047
lwrist 5.975098920005658
lhand -25.097712547167262 -7.114145311831685
lfingers 7.125019999999998
lthumb 1.4172199065149171 22.845363963901466
rclavicle 1.5653053459096811e-15 -8.325386209359046e-16
rhumerus -19.202404785130913 -4.927515347820101 -77.68982176655588
rradius 36.106243871850936
rwrist 32.423628870778415
rhand -17.86595959942373 -25.59817605645543
rfingers 7.125019999999998
rthumb 8.399509452202338 -55.36714438441353
48
root 0.3332830368801895 17.349059955834033 -9.76928891000041 21.786037387277847 0.5798174432470399 -1.025409048689645
lfemur -35.529284093262504 9.140923412858013 -17.923831997939185
ltibia 54.396645071797735
lfoot -6.407984267600423 9.252316169161343
ltoes -29.964896802454838
rfemur -32.99676041569737 -5.729181138570441 21.28052957647733
rtibia 55.47949273176808
rfoot -12.421357203537337 -14.451046415223047
rtoes -8.805150528850245
lowerback 10.582757217588581 0.5545552402267628 -2.576623462306369
upperback -0.6583626454719931 0.544054745222958 2.3015605894002205
thorax -7.835862308435897 0.45232975641010076 3.4860182434105704
lowerneck -16.622407804065894 -0.3608331757143882 -2.8783580618708258
upperneck 10.600504189416439 -0.06341303153252724 1.1708568610480885
head 5.59982158621225 -0.07486095332718842 0.8687936098405071
lclavicle 1.6244014546594794e-15 -7.675926170603026e-16
lhumerus -9.391507227449155 -3.6131508370575127 81.82218107529229
lradius 26.959494437943157
lwrist 15.528792541295324
lhand -25.57407283922755 -7.96838357042439
lfingers 7.125019999999998
lthumb 0.95717542267031 21.996094507800517
rclavicle 1.6244014546594794e-15 -7.675926170603027e-16
rhumerus -16.848179308909348 1.8183141578897004 -79.25042420093583
rradius 41.914305129487936
rwrist 30.432528433100956
rhand -17.93451758122723 -25.3134149896997
rfingers 7.125019999999998
rthumb 8.333309107519526 -55.07625606413101
49
root 0.3515145932873321 19.03447473180873 -7.145338045848987 18.339019517686467 0.9180954622859173 -0.6476854645661503
lfemur -27.578766559753184 8.717329393882784 -16.717293992751
ltibia 47.451213548820476
lfoot 7.165917842451488 3.8397856536781254
ltoes -22.685720392558895
rfemur -24.572815753226504 -7.476089146343213 19.971382412153822
rtibia 48.60535348836778
rfoot 1.6501494047351155 -11.86030854198454
rtoes 1.4922867907220319
lowerback 6.434029578304698 0.08364955168719898 -2.7715846571273732
upperback 0.09006364700405856 -0.03812600589340655 1.9875377654678337
thorax -3.9803083933504526 0.06705035285372898 3.303064516417462
lowerneck -12.467013274026785 -0.36924093145608206 -3.0388498436766342
upperneck 14.092193667736625 -0.21706637136593177 1.6491716641251053
head 6.032184189440434 -0.14366397704982403 1.0000447756083526
lclavicle 1.7250427902656314e-15 -6.569898975039199e-16
lhumerus -8.141427293572988 -11.387753152253069 82.56832619324345
lradius 31.81064033076705
lwrist 23.08615616640953
lhand -25.54488817971913 -8.45685615211169
lfingers 7.125019999999998
lthumb 0.9853276837175635 21.50924592014393
rclavicle 1.7250427902656314e-15 -6.569898975039197e-16
rhumerus -15.966845685531181 6.689885313657301 -80.29093587090306
rradius 45.70115617041127
rwrist 29.34815770826256
rhand -17.720680266264015 -24.8922136774939
rfingers 7.125019999999998
rthumb 8.539539651057837 -54.63577880901753
